<svg width="22" height="23" viewBox="0 0 22 23" fill="none" xmlns="http://www.w3.org/2000/svg">
<path fill-rule="evenodd" clip-rule="evenodd" d="M11 1.98309C5.77256 1.98309 1.53488 6.13168 1.53488 11.2492C1.53488 16.3668 5.77256 20.5154 11 20.5154C16.2274 20.5154 20.4651 16.3668 20.4651 11.2492C20.4651 6.13168 16.2274 1.98309 11 1.98309ZM0 11.2492C0 5.30181 4.92487 0.480469 11 0.480469C17.0751 0.480469 22 5.30181 22 11.2492C22 17.1967 17.0751 22.018 11 22.018C4.92487 22.018 0 17.1967 0 11.2492ZM11 6.49094C11.4238 6.49094 11.7674 6.82732 11.7674 7.24225V10.4979H15.093C15.5169 10.4979 15.8605 10.8343 15.8605 11.2492C15.8605 11.6642 15.5169 12.0005 15.093 12.0005H11.7674V15.2562C11.7674 15.6712 11.4238 16.0075 11 16.0075C10.5762 16.0075 10.2326 15.6712 10.2326 15.2562V12.0005H6.90698C6.48313 12.0005 6.13953 11.6642 6.13953 11.2492C6.13953 10.8343 6.48313 10.4979 6.90698 10.4979H10.2326V7.24225C10.2326 6.82732 10.5762 6.49094 11 6.49094Z" fill="#9A95AE"/>
</svg>
