<svg width="22" height="23" viewBox="0 0 22 23" fill="none" xmlns="http://www.w3.org/2000/svg">
<path fill-rule="evenodd" clip-rule="evenodd" d="M11 2.20233C5.77256 2.20233 1.53488 6.35092 1.53488 11.4685C1.53488 16.586 5.77256 20.7346 11 20.7346C16.2274 20.7346 20.4651 16.586 20.4651 11.4685C20.4651 6.35092 16.2274 2.20233 11 2.20233ZM0 11.4685C0 5.52105 4.92487 0.699707 11 0.699707C17.0751 0.699707 22 5.52105 22 11.4685C22 17.4159 17.0751 22.2372 11 22.2372C4.92487 22.2372 0 17.4159 0 11.4685ZM11 6.71018C11.4238 6.71018 11.7674 7.04656 11.7674 7.46149V10.7172H15.093C15.5169 10.7172 15.8605 11.0535 15.8605 11.4685C15.8605 11.8834 15.5169 12.2198 15.093 12.2198H11.7674V15.4755C11.7674 15.8904 11.4238 16.2268 11 16.2268C10.5762 16.2268 10.2326 15.8904 10.2326 15.4755V12.2198H6.90698C6.48313 12.2198 6.13953 11.8834 6.13953 11.4685C6.13953 11.0535 6.48313 10.7172 6.90698 10.7172H10.2326V7.46149C10.2326 7.04656 10.5762 6.71018 11 6.71018Z" fill="#9A95AE"/>
</svg>
