<svg width="22" height="23" viewBox="0 0 22 23" fill="none" xmlns="http://www.w3.org/2000/svg">
<path fill-rule="evenodd" clip-rule="evenodd" d="M11 2.42156C5.77256 2.42156 1.53488 6.57016 1.53488 11.6877C1.53488 16.8053 5.77256 20.9539 11 20.9539C16.2274 20.9539 20.4651 16.8053 20.4651 11.6877C20.4651 6.57016 16.2274 2.42156 11 2.42156ZM0 11.6877C0 5.74029 4.92487 0.918945 11 0.918945C17.0751 0.918945 22 5.74029 22 11.6877C22 17.6351 17.0751 22.4565 11 22.4565C4.92487 22.4565 0 17.6351 0 11.6877ZM11 6.92942C11.4238 6.92942 11.7674 7.26579 11.7674 7.68073V10.9364H15.093C15.5169 10.9364 15.8605 11.2728 15.8605 11.6877C15.8605 12.1027 15.5169 12.439 15.093 12.439H11.7674V15.6947C11.7674 16.1096 11.4238 16.446 11 16.446C10.5762 16.446 10.2326 16.1096 10.2326 15.6947V12.439H6.90698C6.48313 12.439 6.13953 12.1027 6.13953 11.6877C6.13953 11.2728 6.48313 10.9364 6.90698 10.9364H10.2326V7.68073C10.2326 7.26579 10.5762 6.92942 11 6.92942Z" fill="#9A95AE"/>
</svg>
