<svg width="22" height="23" viewBox="0 0 22 23" fill="none" xmlns="http://www.w3.org/2000/svg">
<path fill-rule="evenodd" clip-rule="evenodd" d="M11 2.03118C5.77256 2.03118 1.53488 6.17978 1.53488 11.2973C1.53488 16.4149 5.77256 20.5635 11 20.5635C16.2274 20.5635 20.4651 16.4149 20.4651 11.2973C20.4651 6.17978 16.2274 2.03118 11 2.03118ZM0 11.2973C0 5.34991 4.92487 0.528564 11 0.528564C17.0751 0.528564 22 5.34991 22 11.2973C22 17.2448 17.0751 22.0661 11 22.0661C4.92487 22.0661 0 17.2448 0 11.2973ZM11 6.53904C11.4238 6.53904 11.7674 6.87541 11.7674 7.29035V10.546H15.093C15.5169 10.546 15.8605 10.8824 15.8605 11.2973C15.8605 11.7123 15.5169 12.0486 15.093 12.0486H11.7674V15.3043C11.7674 15.7193 11.4238 16.0556 11 16.0556C10.5762 16.0556 10.2326 15.7193 10.2326 15.3043V12.0486H6.90698C6.48313 12.0486 6.13953 11.7123 6.13953 11.2973C6.13953 10.8824 6.48313 10.546 6.90698 10.546H10.2326V7.29035C10.2326 6.87541 10.5762 6.53904 11 6.53904Z" fill="#9A95AE"/>
</svg>
