<svg width="22" height="22" viewBox="0 0 22 22" fill="none" xmlns="http://www.w3.org/2000/svg">
<path fill-rule="evenodd" clip-rule="evenodd" d="M11 1.59271C5.77256 1.59271 1.53488 5.7413 1.53488 10.8589C1.53488 15.9764 5.77256 20.125 11 20.125C16.2274 20.125 20.4651 15.9764 20.4651 10.8589C20.4651 5.7413 16.2274 1.59271 11 1.59271ZM0 10.8589C0 4.91143 4.92487 0.0900879 11 0.0900879C17.0751 0.0900879 22 4.91143 22 10.8589C22 16.8063 17.0751 21.6276 11 21.6276C4.92487 21.6276 0 16.8063 0 10.8589ZM11 6.10056C11.4238 6.10056 11.7674 6.43694 11.7674 6.85187V10.1075H15.093C15.5169 10.1075 15.8605 10.4439 15.8605 10.8589C15.8605 11.2738 15.5169 11.6102 15.093 11.6102H11.7674V14.8658C11.7674 15.2808 11.4238 15.6172 11 15.6172C10.5762 15.6172 10.2326 15.2808 10.2326 14.8658V11.6102H6.90698C6.48313 11.6102 6.13953 11.2738 6.13953 10.8589C6.13953 10.4439 6.48313 10.1075 6.90698 10.1075H10.2326V6.85187C10.2326 6.43694 10.5762 6.10056 11 6.10056Z" fill="#9A95AE"/>
</svg>
