<svg width="22" height="22" viewBox="0 0 22 22" fill="none" xmlns="http://www.w3.org/2000/svg">
<path fill-rule="evenodd" clip-rule="evenodd" d="M11 1.81195C5.77256 1.81195 1.53488 5.96054 1.53488 11.0781C1.53488 16.1956 5.77256 20.3442 11 20.3442C16.2274 20.3442 20.4651 16.1956 20.4651 11.0781C20.4651 5.96054 16.2274 1.81195 11 1.81195ZM0 11.0781C0 5.13067 4.92487 0.309326 11 0.309326C17.0751 0.309326 22 5.13067 22 11.0781C22 17.0255 17.0751 21.8469 11 21.8469C4.92487 21.8469 0 17.0255 0 11.0781ZM11 6.3198C11.4238 6.3198 11.7674 6.65617 11.7674 7.07111V10.3268H15.093C15.5169 10.3268 15.8605 10.6632 15.8605 11.0781C15.8605 11.493 15.5169 11.8294 15.093 11.8294H11.7674V15.0851C11.7674 15.5 11.4238 15.8364 11 15.8364C10.5762 15.8364 10.2326 15.5 10.2326 15.0851V11.8294H6.90698C6.48313 11.8294 6.13953 11.493 6.13953 11.0781C6.13953 10.6632 6.48313 10.3268 6.90698 10.3268H10.2326V7.07111C10.2326 6.65617 10.5762 6.3198 11 6.3198Z" fill="#9A95AE"/>
</svg>
