<svg width="21" height="22" viewBox="0 0 21 22" fill="none" xmlns="http://www.w3.org/2000/svg">
<path fill-rule="evenodd" clip-rule="evenodd" d="M17.9405 3.55158C16.9697 2.58036 15.8165 1.81074 14.5471 1.28703C13.2777 0.76331 11.9172 0.495841 10.5441 0.500018C4.78125 0.500018 0.09 5.16783 0.0876562 10.9063C0.0851069 12.7335 0.566763 14.5288 1.48359 16.1094L0 21.5L5.54297 20.053C7.07729 20.8842 8.79484 21.3192 10.5398 21.3186H10.5441C16.3064 21.3186 20.9972 16.6503 21 10.9124C21.0035 9.54387 20.7348 8.18835 20.2095 6.92468C19.6843 5.661 18.913 4.51439 17.9405 3.55158ZM10.5441 19.5622H10.5403C8.98471 19.5627 7.45739 19.1464 6.11719 18.3566L5.79984 18.1691L2.51062 19.0278L3.38859 15.8361L3.18187 15.508C2.31206 14.1309 1.85121 12.5351 1.85297 10.9063C1.85297 6.13767 5.75344 2.25783 10.5473 2.25783C12.847 2.25372 15.0542 3.16324 16.6833 4.78632C18.3125 6.40941 19.2302 8.61315 19.2347 10.9128C19.2328 15.6819 15.3342 19.5622 10.5441 19.5622ZM15.3108 13.0846C15.0497 12.9542 13.7639 12.3252 13.5258 12.2385C13.2877 12.1517 13.1119 12.1081 12.938 12.3688C12.7641 12.6294 12.263 13.2125 12.1106 13.3883C11.9583 13.5641 11.8059 13.5833 11.5448 13.453C11.2838 13.3227 10.4414 13.0485 9.44344 12.1625C8.66672 11.473 8.14266 10.6217 7.99031 10.3616C7.83797 10.1014 7.97391 9.96033 8.10469 9.83096C8.22234 9.71424 8.36578 9.52721 8.49656 9.37533C8.62734 9.22346 8.67094 9.11471 8.75766 8.94127C8.84437 8.76783 8.80125 8.61596 8.73609 8.48611C8.67094 8.35627 8.14828 7.07611 7.93078 6.55533C7.71844 6.04814 7.50328 6.11705 7.34297 6.10908C7.19062 6.10158 7.01484 6.09971 6.84188 6.09971C6.70965 6.10315 6.57955 6.13381 6.4597 6.18978C6.33985 6.24576 6.23283 6.32583 6.14531 6.42502C5.90578 6.68564 5.23078 7.31564 5.23078 8.59439C5.23078 9.87314 6.16828 11.1106 6.29766 11.2841C6.42703 11.4575 8.13984 14.0839 10.7606 15.2103C11.2473 15.4187 11.7445 15.6015 12.2503 15.7578C12.8761 15.9556 13.4456 15.928 13.8956 15.861C14.3977 15.7864 15.4425 15.2319 15.6595 14.6244C15.8766 14.0169 15.877 13.4966 15.8119 13.3883C15.7467 13.28 15.5723 13.2144 15.3108 13.0846Z" fill="white"/>
</svg>
